<?xml version="1.0" encoding="UTF-8"?>
<svg width="1200pt" height="1200pt" version="1.1" viewBox="0 0 1200 1200" xmlns="http://www.w3.org/2000/svg">
 <g fill="#c362dd">
  <path d="m508.12 591.8c12.695 8.2227 27.496 12.602 42.617 12.621 5.6758-0.019531 11.336-0.64844 16.875-1.875 24.02-5.1953 44.254-21.262 54.75-43.477 10.5-22.219 10.066-48.051-1.168-69.906-11.234-21.852-31.992-37.234-56.168-41.625-24.176-4.3867-49.02 2.7188-67.219 19.227-18.199 16.512-27.684 40.547-25.66 65.035 2.0195 24.488 15.312 46.641 35.973 59.945zm7.8945-88.895v0.003906c6.9688-10.867 18.598-17.871 31.461-18.949 12.859-1.082 25.496 3.8789 34.184 13.426 8.6836 9.5469 12.438 22.594 10.148 35.297-2.2852 12.703-10.352 23.617-21.824 29.535-11.473 5.918-25.043 6.1602-36.723 0.66016-11.676-5.5-20.129-16.121-22.871-28.734-2.3945-10.73-0.40234-21.977 5.5312-31.234z"/>
  <path d="m773.93 611.38c15.309-0.003906 29.93-6.3672 40.359-17.574 10.434-11.203 15.742-26.238 14.652-41.512-1.0859-15.27-8.4727-29.402-20.387-39.012-11.918-9.6133-27.293-13.84-42.445-11.672-15.156 2.168-28.73 10.535-37.473 23.102-8.7422 12.566-11.871 28.203-8.6328 43.168 2.668 12.316 9.4727 23.352 19.285 31.266 9.8086 7.9141 22.035 12.23 34.641 12.234zm-14.852-64.742v-0.003906c2.9805-4.6172 7.9375-7.5898 13.414-8.0391 5.4766-0.44922 10.852 1.6719 14.543 5.7422 3.6914 4.0703 5.2812 9.6289 4.3008 15.035s-4.4219 10.051-9.3086 12.566c-4.8867 2.5156-10.664 2.6133-15.633 0.26562-4.9727-2.3438-8.5703-6.8672-9.7344-12.238-1.0117-4.5898-0.14062-9.3906 2.418-13.332z"/>
  <path d="m931.54 473.81c-36.938-57.141-90.406-101.67-153.29-127.66-62.883-25.984-132.19-32.195-198.69-17.805-66.5 14.395-127.04 48.707-173.54 98.371-46.508 49.664-76.781 112.32-86.781 179.62-158.25 50.137-228.86 105-215.29 167.89 12.449 57.488 78.133 71.363 157.16 71.363 19.18 0 39.148-0.82422 59.324-2.0234 15.805-0.95703 32.586-2.3633 49.801-3.9922 37.062 56.727 90.469 100.88 153.16 126.61 62.688 25.734 131.71 31.844 197.94 17.516 66.23-14.324 126.56-48.406 173.01-97.746 46.453-49.336 76.84-111.61 87.148-178.58 16.367-5.625 32.27-11.25 47.043-16.988 96.656-37.051 183.94-81.148 168.51-152.62-13.82-63.75-100.86-84.617-265.5-63.938zm-576.98 149.68c6.8086-62.082 32.973-120.45 74.785-166.85s97.16-78.461 158.2-91.664c61.047-13.203 124.7-6.8711 181.95 18.098s105.19 67.312 137.05 121.04c6.6641 11.207 12.562 22.855 17.664 34.855 5.3242 12.602 17.438 55.125 17.531 55.648-94.223 31.793-190.26 57.918-287.61 78.227-97.043 21.754-195.3 37.664-294.25 47.645-5.5352-32.016-7.3242-64.566-5.3242-96.996zm208.39 273.08c3.7891-5.9102 9.7852-10.059 16.652-11.516 1.8438-0.41016 3.7305-0.61719 5.625-0.61719 6.6836 0 13.121 2.5352 18.016 7.0898 4.8906 4.5586 7.875 10.797 8.3516 17.469 0.47656 6.668-1.5938 13.27-5.7891 18.473-4.1953 5.207-10.211 8.625-16.828 9.5742-6.6172 0.94922-13.352-0.64453-18.84-4.457-5.4922-3.8164-9.332-9.5703-10.75-16.105-1.5352-6.8477-0.25391-14.023 3.5625-19.91zm150.47 50.398c-26.398 5.668-53.449 7.6914-80.398 6.0195 14.543-16.645 19.43-39.637 12.906-60.754-6.5195-21.121-23.516-37.355-44.91-42.906-21.395-5.5469-44.137 0.38672-60.102 15.676-15.961 15.289-22.863 37.758-18.238 59.371v0.24219c-43.32-20.574-81.02-51.316-109.89-89.605 80.398-9.375 171.9-24.883 266.55-45.336 94.648-20.457 184.35-44.23 261.45-68.887-12.352 55.469-40.324 106.25-80.613 146.33-40.293 40.082-91.215 67.789-146.75 79.852zm301.71-291.6c-112.04 40.82-226.89 73.469-343.65 97.688-116.33 26.195-234.4 43.938-353.29 53.082-147.86 8.8516-172.5-16.648-177.56-39.844-4.7617-21.957 12.898-65.852 174.92-119.36-0.14844 5.4766-0.30078 10.93-0.1875 16.406 0.14844 6.8242 0.5625 13.648 1.125 20.512l0.28125 3.0195c0.16797 1.875 0.46875 3.75 0.67578 5.625-28.555 10.223-56.531 21.984-83.812 35.234-5 2.5117-8.6172 7.1289-9.8633 12.586-1.2422 5.457 0.015625 11.184 3.4336 15.613 3.418 4.4336 8.6367 7.1094 14.23 7.293 4.2188 0.14844 9.8047 0.24219 16.875 0.24219 52.086 0 182.76-6.0938 403.8-53.926 250.93-54.262 373.57-109.39 405.19-124.99v0.003906c5.0039-2.4805 8.6406-7.0625 9.9219-12.496 1.2812-5.4375 0.074218-11.16-3.2969-15.613-3.3672-4.457-8.5469-7.1758-14.125-7.4219-30.32-0.78125-60.656 0.082031-90.883 2.5859-0.58203-1.875-1.0508-3.6016-1.668-5.3828l-1.0117-2.8516c-2.3242-6.4883-4.7812-12.883-7.5-19.273-2.1367-5.0234-4.5547-9.9766-6.957-14.906 169.48-19.18 203.85 14.117 208.71 36.523 4.8906 23.18-7.0703 56.648-145.35 109.65z"/>
  <path d="m268.12 453.39c0-33.617-13.355-65.855-37.125-89.625-23.77-23.773-56.008-37.125-89.625-37.125s-65.855 13.352-89.625 37.125c-23.77 23.77-37.125 56.008-37.125 89.625 0 33.617 13.355 65.855 37.125 89.625s56.008 37.125 89.625 37.125c33.605-0.039062 65.82-13.406 89.582-37.168 23.762-23.762 37.129-55.98 37.168-89.582zm-215.98 0c0-23.672 9.4023-46.375 26.141-63.113 16.742-16.738 39.441-26.141 63.113-26.137 23.672 0 46.375 9.4062 63.109 26.148 16.738 16.738 26.141 39.441 26.137 63.113-0.003906 23.672-9.4102 46.371-26.152 63.109-16.742 16.734-39.445 26.133-63.117 26.129-23.648-0.050781-46.309-9.4727-63.02-26.203-16.715-16.727-26.113-39.402-26.137-63.047z"/>
  <path d="m315.77 327.15h36.508v36.508h-36.508z"/>
  <path d="m292.39 938.68h36.43v36.43h-36.43z"/>
  <path d="m946.52 322.89h33.168v33.168h-33.168z"/>
  <path d="m1046.8 779.62h36.301v36.301h-36.301z"/>
  <path d="m825.41 250.14h33.168v33.168h-33.168z"/>
 </g>
</svg>
